<mxfile host="app.diagrams.net" agent="Mozilla/5.0 (Windows NT 10.0; Win64; x64) AppleWebKit/537.36 (KHTML, like Gecko) Chrome/138.0.0.0 Safari/537.36 Edg/138.0.0.0" version="28.0.7">
  <diagram name="Страница — 1" id="jPUKhbYvjANX5cvcjyg5">
    <mxGraphModel dx="1244" dy="716" grid="1" gridSize="10" guides="1" tooltips="1" connect="1" arrows="1" fold="1" page="1" pageScale="1" pageWidth="827" pageHeight="1169" math="0" shadow="0">
      <root>
        <mxCell id="0" />
        <mxCell id="1" parent="0" />
        <mxCell id="OftoyVCzpQarvaOS43fA-3" value="" style="rounded=0;whiteSpace=wrap;html=1;" vertex="1" parent="1">
          <mxGeometry x="110" y="90" width="560" height="480" as="geometry" />
        </mxCell>
        <mxCell id="OftoyVCzpQarvaOS43fA-14" style="edgeStyle=orthogonalEdgeStyle;rounded=0;orthogonalLoop=1;jettySize=auto;html=1;exitX=0;exitY=1;exitDx=0;exitDy=-15;exitPerimeter=0;entryX=1;entryY=0.75;entryDx=0;entryDy=0;" edge="1" parent="1" source="OftoyVCzpQarvaOS43fA-1" target="OftoyVCzpQarvaOS43fA-5">
          <mxGeometry relative="1" as="geometry" />
        </mxCell>
        <mxCell id="OftoyVCzpQarvaOS43fA-16" value="Данные" style="edgeLabel;html=1;align=center;verticalAlign=middle;resizable=0;points=[];" vertex="1" connectable="0" parent="OftoyVCzpQarvaOS43fA-14">
          <mxGeometry x="-0.1475" y="-2" relative="1" as="geometry">
            <mxPoint x="-31" as="offset" />
          </mxGeometry>
        </mxCell>
        <mxCell id="OftoyVCzpQarvaOS43fA-1" value="" style="shape=cylinder3;whiteSpace=wrap;html=1;boundedLbl=1;backgroundOutline=1;size=15;" vertex="1" parent="1">
          <mxGeometry x="560" y="270" width="60" height="80" as="geometry" />
        </mxCell>
        <mxCell id="OftoyVCzpQarvaOS43fA-2" value="БД" style="text;html=1;align=center;verticalAlign=middle;resizable=0;points=[];autosize=1;strokeColor=none;fillColor=none;" vertex="1" parent="1">
          <mxGeometry x="550" y="360" width="40" height="30" as="geometry" />
        </mxCell>
        <mxCell id="OftoyVCzpQarvaOS43fA-10" style="edgeStyle=orthogonalEdgeStyle;rounded=0;orthogonalLoop=1;jettySize=auto;html=1;exitX=0.75;exitY=1;exitDx=0;exitDy=0;entryX=0.75;entryY=0;entryDx=0;entryDy=0;dashed=1;dashPattern=8 8;" edge="1" parent="1" source="OftoyVCzpQarvaOS43fA-5" target="OftoyVCzpQarvaOS43fA-7">
          <mxGeometry relative="1" as="geometry" />
        </mxCell>
        <mxCell id="OftoyVCzpQarvaOS43fA-11" value="Данные" style="edgeLabel;html=1;align=center;verticalAlign=middle;resizable=0;points=[];" vertex="1" connectable="0" parent="OftoyVCzpQarvaOS43fA-10">
          <mxGeometry x="0.4293" relative="1" as="geometry">
            <mxPoint as="offset" />
          </mxGeometry>
        </mxCell>
        <mxCell id="OftoyVCzpQarvaOS43fA-18" style="edgeStyle=orthogonalEdgeStyle;rounded=0;orthogonalLoop=1;jettySize=auto;html=1;exitX=0.75;exitY=0;exitDx=0;exitDy=0;entryX=0.25;entryY=1;entryDx=0;entryDy=0;" edge="1" parent="1" source="OftoyVCzpQarvaOS43fA-5" target="OftoyVCzpQarvaOS43fA-13">
          <mxGeometry relative="1" as="geometry" />
        </mxCell>
        <mxCell id="OftoyVCzpQarvaOS43fA-19" value="Запрос на получение страницы" style="edgeLabel;html=1;align=center;verticalAlign=middle;resizable=0;points=[];" vertex="1" connectable="0" parent="OftoyVCzpQarvaOS43fA-18">
          <mxGeometry x="0.1267" y="4" relative="1" as="geometry">
            <mxPoint x="-12" y="4" as="offset" />
          </mxGeometry>
        </mxCell>
        <mxCell id="OftoyVCzpQarvaOS43fA-5" value="API-парсер" style="rounded=0;whiteSpace=wrap;html=1;" vertex="1" parent="1">
          <mxGeometry x="170" y="290" width="120" height="60" as="geometry" />
        </mxCell>
        <mxCell id="OftoyVCzpQarvaOS43fA-22" style="edgeStyle=orthogonalEdgeStyle;rounded=0;orthogonalLoop=1;jettySize=auto;html=1;exitX=0.5;exitY=1;exitDx=0;exitDy=0;entryX=0.5;entryY=0;entryDx=0;entryDy=0;" edge="1" parent="1" source="OftoyVCzpQarvaOS43fA-6" target="OftoyVCzpQarvaOS43fA-5">
          <mxGeometry relative="1" as="geometry" />
        </mxCell>
        <mxCell id="OftoyVCzpQarvaOS43fA-26" value="Запуск сервиса парсинга" style="edgeLabel;html=1;align=center;verticalAlign=middle;resizable=0;points=[];" vertex="1" connectable="0" parent="OftoyVCzpQarvaOS43fA-22">
          <mxGeometry x="-0.0107" y="1" relative="1" as="geometry">
            <mxPoint x="-1" y="-19" as="offset" />
          </mxGeometry>
        </mxCell>
        <mxCell id="OftoyVCzpQarvaOS43fA-6" value="Background worker" style="rounded=0;whiteSpace=wrap;html=1;" vertex="1" parent="1">
          <mxGeometry x="170" y="130" width="120" height="60" as="geometry" />
        </mxCell>
        <mxCell id="OftoyVCzpQarvaOS43fA-8" style="edgeStyle=orthogonalEdgeStyle;rounded=0;orthogonalLoop=1;jettySize=auto;html=1;exitX=0.25;exitY=0;exitDx=0;exitDy=0;entryX=0.25;entryY=1;entryDx=0;entryDy=0;dashed=1;dashPattern=8 8;" edge="1" parent="1" source="OftoyVCzpQarvaOS43fA-7" target="OftoyVCzpQarvaOS43fA-5">
          <mxGeometry relative="1" as="geometry" />
        </mxCell>
        <mxCell id="OftoyVCzpQarvaOS43fA-9" value="Запрос на&lt;br&gt;получение данных" style="edgeLabel;html=1;align=center;verticalAlign=middle;resizable=0;points=[];" vertex="1" connectable="0" parent="OftoyVCzpQarvaOS43fA-8">
          <mxGeometry x="0.2107" relative="1" as="geometry">
            <mxPoint y="-9" as="offset" />
          </mxGeometry>
        </mxCell>
        <mxCell id="OftoyVCzpQarvaOS43fA-7" value="Клиент" style="rounded=0;whiteSpace=wrap;html=1;dashed=1;dashPattern=8 8;" vertex="1" parent="1">
          <mxGeometry x="170" y="450" width="120" height="60" as="geometry" />
        </mxCell>
        <mxCell id="OftoyVCzpQarvaOS43fA-20" style="edgeStyle=orthogonalEdgeStyle;rounded=0;orthogonalLoop=1;jettySize=auto;html=1;exitX=0.75;exitY=1;exitDx=0;exitDy=0;entryX=1;entryY=0;entryDx=0;entryDy=0;" edge="1" parent="1" source="OftoyVCzpQarvaOS43fA-13" target="OftoyVCzpQarvaOS43fA-5">
          <mxGeometry relative="1" as="geometry">
            <Array as="points">
              <mxPoint x="550" y="270" />
              <mxPoint x="290" y="270" />
            </Array>
          </mxGeometry>
        </mxCell>
        <mxCell id="OftoyVCzpQarvaOS43fA-21" value="Страница" style="edgeLabel;html=1;align=center;verticalAlign=middle;resizable=0;points=[];" vertex="1" connectable="0" parent="OftoyVCzpQarvaOS43fA-20">
          <mxGeometry x="0.3505" y="-3" relative="1" as="geometry">
            <mxPoint x="23" y="3" as="offset" />
          </mxGeometry>
        </mxCell>
        <mxCell id="OftoyVCzpQarvaOS43fA-13" value="Сайт Zeon" style="rounded=0;whiteSpace=wrap;html=1;" vertex="1" parent="1">
          <mxGeometry x="460" y="130" width="120" height="60" as="geometry" />
        </mxCell>
        <mxCell id="OftoyVCzpQarvaOS43fA-15" style="edgeStyle=orthogonalEdgeStyle;rounded=0;orthogonalLoop=1;jettySize=auto;html=1;exitX=1;exitY=0.25;exitDx=0;exitDy=0;entryX=0;entryY=0.5;entryDx=0;entryDy=0;entryPerimeter=0;" edge="1" parent="1" source="OftoyVCzpQarvaOS43fA-5" target="OftoyVCzpQarvaOS43fA-1">
          <mxGeometry relative="1" as="geometry" />
        </mxCell>
        <mxCell id="OftoyVCzpQarvaOS43fA-17" value="Распаршенные данные" style="edgeLabel;html=1;align=center;verticalAlign=middle;resizable=0;points=[];" vertex="1" connectable="0" parent="OftoyVCzpQarvaOS43fA-15">
          <mxGeometry x="-0.2079" relative="1" as="geometry">
            <mxPoint x="15" as="offset" />
          </mxGeometry>
        </mxCell>
      </root>
    </mxGraphModel>
  </diagram>
</mxfile>
